# xmcd CD database file
#
# Track frame offsets:
#	150
#	22733
#	43910
#	66196
#	85850
#	109461
#	131765
#	150872
#	174712
#	180000
#
# Disc length: 2829 seconds
#
# Revision: 0
# Processed by: cddbd v1.5.1PL0 Copyright (c) Steve Scherf et al.
# Submitted via: CDex 1.51
#
DISCID=760b0b0a
DTITLE=Kevin Ceballo - Mi Primer Amor
DYEAR=2000
DGENRE=Salsa
TTITLE0=Oye
TTITLE1=Come Fue Capaz
TTITLE2=Mi Primer Amor (Salsa)
TTITLE3=Por Esa Mujer
TTITLE4=Vivire
TTITLE5=Yo Te Prometo
TTITLE6=Mi Primer Amor (Bachata)
TTITLE7=Ausencia
TTITLE8=Quiero Bailar
TTITLE9=What Kind Of Man
EXTD=YEAR: 2000
EXTT0=
EXTT1=
EXTT2=
EXTT3=
EXTT4=
EXTT5=
EXTT6=
EXTT7=
EXTT8=
EXTT9=
PLAYORDER=
